{
  "asset": {
    "extras": {
      "author": "Akimovcg (https://sketchfab.com/akimovcg)",
      "license": "CC-BY-4.0 (http://creativecommons.org/licenses/by/4.0/)",
      "source": "https://sketchfab.com/3d-models/ethereum-3d-logo-de0c154b6f1c46639864a01360dd6aa0",
      "title": "Ethereum 3D logo"
    },
    "generator": "gltfeditor.com",
    "version": "2.0"
  },
  "buffers": [
    {
      "uri": "data:application/octet-stream;base64,",
      "byteLength": 21520
    }
  ],
  "bufferViews": [
    {
      "buffer": 0,
      "byteOffset": 12112,
      "byteLength": 9408,
      "target": 34962,
      "byteStride": 12
    },
    {
      "buffer": 0,
      "byteOffset": 8976,
      "byteLength": 3136,
      "target": 34962,
      "byteStride": 8
    },
    {
      "buffer": 0,
      "byteOffset": 0,
      "byteLength": 8976,
      "target": 34963
    }
  ],
  "accessors": [
    {
      "bufferView": 0,
      "byteOffset": 4704,
      "componentType": 5126,
      "normalized": false,
      "count": 392,
      "max": [
        0.9861997961997986,
        0.9926164150238037,
        0.999412477016449
      ],
      "min": [
        -0.9862011075019836,
        -0.9926164150238037,
        -0.968174934387207
      ],
      "type": "VEC3"
    },
    {
      "bufferView": 0,
      "byteOffset": 0,
      "componentType": 5126,
      "normalized": false,
      "count": 392,
      "max": [
        244.1079864501953,
        155.44158935546875,
        393.6180419921875
      ],
      "min": [
        -244.1079864501953,
        -155.44158935546875,
        -398.92047119140625
      ],
      "type": "VEC3"
    },
    {
      "bufferView": 1,
      "byteOffset": 0,
      "componentType": 5126,
      "normalized": false,
      "count": 392,
      "max": [
        1.0071460008621216,
        1.0019030570983887
      ],
      "min": [
        -0.00950200017541647,
        -0.01256099995225668
      ],
      "type": "VEC2"
    },
    {
      "bufferView": 2,
      "byteOffset": 0,
      "componentType": 5125,
      "normalized": false,
      "count": 2244,
      "max": [
        391
      ],
      "min": [
        0
      ],
      "type": "SCALAR"
    }
  ],
  "scene": 0,
  "scenes": [
    {
      "nodes": [
        2
      ],
      "name": "Sketchfab_Scene"
    }
  ],
  "nodes": [
    {
      "name": "Object_2",
      "mesh": 0
    },
    {
      "name": "Ethereum.obj.cleaner.materialmerger.gles",
      "children": [
        0
      ]
    },
    {
      "name": "Sketchfab_model",
      "children": [
        1
      ],
      "translation": [
        0,
        0,
        0
      ],
      "rotation": [
        -0.7071067690849304,
        0,
        0,
        0.7071067690849304
      ],
      "scale": [
        1,
        1,
        1
      ]
    }
  ],
  "meshes": [
    {
      "primitives": [
        {
          "attributes": {
            "NORMAL": 0,
            "POSITION": 1,
            "TEXCOORD_0": 2
          },
          "material": 0,
          "mode": 4,
          "indices": 3
        }
      ]
    }
  ],
  "materials": [
    {
      "pbrMetallicRoughness": {
        "baseColorFactor": [
          0.0196078431372549,
          0.2196078431372549,
          0.4196078431372549,
          1
        ],
        "metallicFactor": 1,
        "roughnessFactor": 1
      },
      "emissiveFactor": [
        0,
        0,
        0
      ],
      "alphaMode": "BLEND",
      "doubleSided": true
    }
  ]
}