<svg width="438" height="459" viewBox="0 0 438 459" fill="none" xmlns="http://www.w3.org/2000/svg">
<path d="M378.249 0.992676L437.108 458.471L0.0664673 271.782L378.249 0.992676Z" fill="#05386B"/>
<path fill-rule="evenodd" clip-rule="evenodd" d="M378.249 0.992676L0.0664673 271.782L437.108 458.471L378.249 0.992676ZM377.466 2.77792L2.08896 271.558L435.888 456.862L377.466 2.77792Z" fill="black"/>
<path d="M291.88 79.2672L403.827 127.82L338.873 273.73L226.927 225.178L291.88 79.2672Z" fill="#F94E87"/>
<path fill-rule="evenodd" clip-rule="evenodd" d="M402.502 128.336L292.391 80.5786L228.251 224.662L338.362 272.419L402.502 128.336ZM291.88 79.2672L226.927 225.178L338.873 273.73L403.827 127.82L291.88 79.2672Z" fill="black"/>
<path d="M175.827 218.639L379.164 203.736L387.021 310.931L183.684 325.835L175.827 218.639Z" fill="#05386B"/>
</svg>
